<?xml version="1.0" standalone="no"?>
<!DOCTYPE svg PUBLIC "-//W3C//DTD SVG 20010904//EN"
 "http://www.w3.org/TR/2001/REC-SVG-20010904/DTD/svg10.dtd">
<svg version="1.0" xmlns="http://www.w3.org/2000/svg"
 width="500.000000pt" height="500.000000pt" viewBox="0 0 500.000000 500.000000"
 preserveAspectRatio="xMidYMid meet">
<metadata>
Created by potrace 1.11, written by Peter Selinger 2001-2013
</metadata>
<g transform="translate(0.000000,500.000000) scale(0.100000,-0.100000)"
fill="#000000" stroke="none">
<path d="M1729 4108 c0 -13 0 -206 -1 -431 0 -224 -4 -409 -8 -412 -4 -2 -151
-5 -326 -6 -333 -1 -393 -7 -486 -47 -58 -26 -121 -82 -154 -138 -48 -82 -53
-146 -54 -711 l0 -523 317 0 318 0 0 426 c0 411 1 426 20 440 15 12 55 14 195
12 l175 -3 2 -425 c1 -234 2 -431 2 -437 1 -10 72 -13 321 -13 l320 0 1 38 c0
20 1 535 2 1144 l2 1108 -322 0 -323 0 -1 -22z"/>
<path d="M2640 3420 l0 -710 325 0 325 0 0 425 0 425 179 0 c154 0 180 -2 192
-17 11 -13 14 -94 16 -417 1 -221 2 -404 2 -408 1 -5 143 -8 316 -8 l315 0 0
553 c-1 583 -2 605 -48 692 -27 52 -84 111 -130 134 -77 39 -122 41 -817 41
l-675 0 0 -710z"/>
<path d="M2640 1740 l0 -870 325 0 325 0 0 435 0 435 325 0 c179 0 327 0 330
1 130 23 232 73 286 142 67 84 72 115 77 440 l4 287 -316 0 c-174 0 -316 -3
-317 -7 0 -5 -1 -75 -2 -156 -2 -119 -5 -150 -17 -157 -8 -5 -95 -10 -192 -10
l-178 0 0 165 0 165 -325 0 -325 0 0 -870z"/>
<path d="M700 1472 c1 -311 10 -371 68 -457 44 -64 86 -97 161 -127 55 -21 65
-21 749 -22 l692 -2 1 46 c0 25 1 221 1 435 l0 390 -321 3 c-301 2 -321 1
-322 -15 0 -10 -1 -77 -1 -150 1 -115 -1 -133 -16 -137 -9 -3 -88 -5 -175 -4
-210 1 -200 -8 -201 171 l-1 137 -318 0 -318 0 1 -268z"/>
</g>
</svg>
