<svg xmlns="http://www.w3.org/2000/svg" xmlns:xlink="http://www.w3.org/1999/xlink" version="1.1" width="100" height="100" style="" xml:space="preserve"><rect id="backgroundrect" width="100%" height="100%" x="0" y="0" fill="none" stroke="none"/>
















<g class="currentLayer" style=""><title>Layer 1</title><g id="svg_1" class="selected" fill-opacity="1" fill="#021e45">
	<path d="M62.925,87.354c-1.733-1.275-1.918-3.189-1.918-3.189l-0.649-4.154H39.643l-0.652,4.152c0,0-0.181,1.916-1.914,3.19   c-1.732,1.275-3.099,2.369-1.732,2.554c1.317,0.178,13.74,0.016,14.656,0c0.918,0.016,13.338,0.178,14.655,0   C66.021,89.723,64.654,88.631,62.925,87.354z" id="svg_2" fill="#021e45"/>
	<g id="svg_3" fill="#021e45">
		<rect x="22.750999450683594" y="43.505001068115234" width="8" height="15" id="svg_4" fill="#021e45"/>
		<rect x="39.750999450683594" y="36.505001068115234" width="8" height="22" id="svg_5" fill="#021e45"/>
		<rect x="55.75199890136719" y="43.505001068115234" width="8" height="15" id="svg_6" fill="#021e45"/>
		<rect x="70.75199890136719" y="36.505001068115234" width="8" height="22" id="svg_7" fill="#021e45"/>
		<polygon points="44.648,28.065 60.82,38.424 83.174,22.25 80.828,19.01 60.684,33.586 44.854,23.445 16.826,37.857 18.677,41.403       " id="svg_8" fill="#021e45"/>
	</g>
	<path d="M96,10.01H4c-2.209,0-4,1.791-4,4v58c0,2.209,1.791,4,4,4h92c2.209,0,4-1.791,4-4v-58C100,11.801,98.209,10.01,96,10.01z    M94.001,64.01h-88v-48h88V64.01z" id="svg_9" fill="#021e45"/>
</g><g id="svg_10">
</g><g id="svg_11">
</g><g id="svg_12">
</g><g id="svg_13">
</g><g id="svg_14">
</g><g id="svg_15">
</g><g id="svg_16">
</g><g id="svg_17">
</g><g id="svg_18">
</g><g id="svg_19">
</g><g id="svg_20">
</g><g id="svg_21">
</g><g id="svg_22">
</g><g id="svg_23">
</g><g id="svg_24">
</g></g></svg>